<svg id="Layer_1" data-name="Layer 1" xmlns="http://www.w3.org/2000/svg" viewBox="0 0 120 120"><defs><style>.cls-1{fill:#fff;}.cls-2{fill:#1a1a1a;}</style></defs><title>coin-logo-white</title><ellipse class="cls-1" cx="59.89" cy="60.08" rx="60.18" ry="60.08"/><path class="cls-2" d="M81.93,66.09s-1.24,5.77-1,7.22,1.15,4.88.5,7.15l.87,1s10.4-8.87,8,3.44c0,0,3,5-2.85,6.67,0,0,2.6,4.54-3.4,5v1.86l-1.55-1.1-1.09.76,0-1.44s-19.84,14.91-41.67,1.44c0,0,4-4.4,4-5.91s2.08-5.57,2.08-5.57-3-8.32-1.51-11.75L35,70.42s-5,1.37-2.68-5.5c0,0-.83-2.2-.21-3.23l.62-1s-.76-1.1-.48-1.65,1.17-2.61,1-3.3-2.89-.21-3.44-.62-2.13-1.58,0-5.43a62,62,0,0,1,5.71-8.11S35,35.44,41.79,27.74s7.71-8.32,7.71-8.32,7.71-4.81,14.18-3a60.64,60.64,0,0,1,11.7,4.81S83.3,27.19,85,33.1,87.85,43.21,86.13,51c0,0,8.06,11-4.27,14.57"/></svg>